<?xml version="1.0" encoding="UTF-8"?><svg xmlns="http://www.w3.org/2000/svg" xmlns:xlink="http://www.w3.org/1999/xlink" contentStyleType="text/css" height="554px" preserveAspectRatio="none" style="width:912px;height:554px;background:#FFFFFF;" version="1.1" viewBox="0 0 912 554" width="912px" zoomAndPan="magnify">
    <defs/>
    <g>
        <rect fill="none" height="325.1875" style="stroke:#000000;stroke-width:1.5;" width="825" x="80" y="176.0156"/>
        <rect fill="none" height="155.5938" style="stroke:#000000;stroke-width:1.5;" width="805" x="90" y="338.6094"/>
        <line style="stroke:#181818;stroke-width:0.5;stroke-dasharray:5.0,5.0;" x1="26" x2="26" y1="37.6094" y2="518.2031"/>
        <line style="stroke:#181818;stroke-width:0.5;stroke-dasharray:5.0,5.0;" x1="136" x2="136" y1="37.6094" y2="518.2031"/>
        <line style="stroke:#181818;stroke-width:0.5;stroke-dasharray:5.0,5.0;" x1="320.5" x2="320.5" y1="37.6094" y2="518.2031"/>
        <line style="stroke:#181818;stroke-width:0.5;stroke-dasharray:5.0,5.0;" x1="445.5" x2="445.5" y1="37.6094" y2="518.2031"/>
        <line style="stroke:#181818;stroke-width:0.5;stroke-dasharray:5.0,5.0;" x1="560.5" x2="560.5" y1="37.6094" y2="518.2031"/>
        <line style="stroke:#181818;stroke-width:0.5;stroke-dasharray:5.0,5.0;" x1="670.5" x2="670.5" y1="37.6094" y2="518.2031"/>
        <line style="stroke:#181818;stroke-width:0.5;stroke-dasharray:5.0,5.0;" x1="812" x2="812" y1="37.6094" y2="518.2031"/>
        <rect fill="#E2E2F0" height="31.6094" rx="2.5" ry="2.5" style="stroke:#181818;stroke-width:0.5;" width="43" x="5" y="5"/>
        <text fill="#000000" font-family="sans-serif" font-size="14" lengthAdjust="spacing" textLength="29" x="12" y="26.5332">User</text>
        <rect fill="#E2E2F0" height="31.6094" rx="2.5" ry="2.5" style="stroke:#181818;stroke-width:0.5;" width="43" x="5" y="517.2031"/>
        <text fill="#000000" font-family="sans-serif" font-size="14" lengthAdjust="spacing" textLength="29" x="12" y="538.7363">User</text>
        <rect fill="#E2E2F0" height="31.6094" rx="2.5" ry="2.5" style="stroke:#181818;stroke-width:0.5;" width="73" x="100" y="5"/>
        <text fill="#000000" font-family="sans-serif" font-size="14" lengthAdjust="spacing" textLength="59" x="107" y="26.5332">MainView</text>
        <rect fill="#E2E2F0" height="31.6094" rx="2.5" ry="2.5" style="stroke:#181818;stroke-width:0.5;" width="73" x="100" y="517.2031"/>
        <text fill="#000000" font-family="sans-serif" font-size="14" lengthAdjust="spacing" textLength="59" x="107" y="538.7363">MainView</text>
        <rect fill="#E2E2F0" height="31.6094" rx="2.5" ry="2.5" style="stroke:#181818;stroke-width:0.5;" width="106" x="267.5" y="5"/>
        <text fill="#000000" font-family="sans-serif" font-size="14" lengthAdjust="spacing" textLength="92" x="274.5" y="26.5332">MainController</text>
        <rect fill="#E2E2F0" height="31.6094" rx="2.5" ry="2.5" style="stroke:#181818;stroke-width:0.5;" width="106" x="267.5" y="517.2031"/>
        <text fill="#000000" font-family="sans-serif" font-size="14" lengthAdjust="spacing" textLength="92" x="274.5" y="538.7363">MainController</text>
        <rect fill="#E2E2F0" height="31.6094" rx="2.5" ry="2.5" style="stroke:#181818;stroke-width:0.5;" width="125" x="383.5" y="5"/>
        <text fill="#000000" font-family="sans-serif" font-size="14" lengthAdjust="spacing" textLength="111" x="390.5" y="26.5332">ContactController</text>
        <rect fill="#E2E2F0" height="31.6094" rx="2.5" ry="2.5" style="stroke:#181818;stroke-width:0.5;" width="125" x="383.5" y="517.2031"/>
        <text fill="#000000" font-family="sans-serif" font-size="14" lengthAdjust="spacing" textLength="111" x="390.5" y="538.7363">ContactController</text>
        <rect fill="#E2E2F0" height="31.6094" rx="2.5" ry="2.5" style="stroke:#181818;stroke-width:0.5;" width="84" x="518.5" y="5"/>
        <text fill="#000000" font-family="sans-serif" font-size="14" lengthAdjust="spacing" textLength="70" x="525.5" y="26.5332">Validatable</text>
        <rect fill="#E2E2F0" height="31.6094" rx="2.5" ry="2.5" style="stroke:#181818;stroke-width:0.5;" width="84" x="518.5" y="517.2031"/>
        <text fill="#000000" font-family="sans-serif" font-size="14" lengthAdjust="spacing" textLength="70" x="525.5" y="538.7363">Validatable</text>
        <rect fill="#E2E2F0" height="31.6094" rx="2.5" ry="2.5" style="stroke:#181818;stroke-width:0.5;" width="54" x="643.5" y="5"/>
        <text fill="#000000" font-family="sans-serif" font-size="14" lengthAdjust="spacing" textLength="40" x="650.5" y="26.5332">VCard</text>
        <rect fill="#E2E2F0" height="31.6094" rx="2.5" ry="2.5" style="stroke:#181818;stroke-width:0.5;" width="54" x="643.5" y="517.2031"/>
        <text fill="#000000" font-family="sans-serif" font-size="14" lengthAdjust="spacing" textLength="40" x="650.5" y="538.7363">VCard</text>
        <rect fill="#E2E2F0" height="31.6094" rx="2.5" ry="2.5" style="stroke:#181818;stroke-width:0.5;" width="145" x="740" y="5"/>
        <text fill="#000000" font-family="sans-serif" font-size="14" lengthAdjust="spacing" textLength="131" x="747" y="26.5332">AddressBookService</text>
        <rect fill="#E2E2F0" height="31.6094" rx="2.5" ry="2.5" style="stroke:#181818;stroke-width:0.5;" width="145" x="740" y="517.2031"/>
        <text fill="#000000" font-family="sans-serif" font-size="14" lengthAdjust="spacing" textLength="131" x="747" y="538.7363">AddressBookService</text>
        <polygon fill="#181818" points="124.5,65.9609,134.5,69.9609,124.5,73.9609,128.5,69.9609" style="stroke:#181818;stroke-width:1.0;"/>
        <line style="stroke:#181818;stroke-width:1.0;" x1="26.5" x2="130.5" y1="69.9609" y2="69.9609"/>
        <text fill="#000000" font-family="sans-serif" font-size="13" lengthAdjust="spacing" textLength="86" x="33.5" y="65.1045">addContactBtn</text>
        <polygon fill="#181818" points="308.5,96.3125,318.5,100.3125,308.5,104.3125,312.5,100.3125" style="stroke:#181818;stroke-width:1.0;"/>
        <line style="stroke:#181818;stroke-width:1.0;" x1="136.5" x2="314.5" y1="100.3125" y2="100.3125"/>
        <text fill="#000000" font-family="sans-serif" font-size="13" lengthAdjust="spacing" textLength="100" x="143.5" y="95.4561">AddContactEvent</text>
        <polygon fill="#181818" points="434,126.6641,444,130.6641,434,134.6641,438,130.6641" style="stroke:#181818;stroke-width:1.0;"/>
        <line style="stroke:#181818;stroke-width:1.0;" x1="320.5" x2="440" y1="130.6641" y2="130.6641"/>
        <text fill="#000000" font-family="sans-serif" font-size="13" lengthAdjust="spacing" textLength="91" x="327.5" y="125.8076">addNewContact</text>
        <polygon fill="#181818" points="548.5,157.0156,558.5,161.0156,548.5,165.0156,552.5,161.0156" style="stroke:#181818;stroke-width:1.0;"/>
        <line style="stroke:#181818;stroke-width:1.0;" x1="446" x2="554.5" y1="161.0156" y2="161.0156"/>
        <text fill="#000000" font-family="sans-serif" font-size="13" lengthAdjust="spacing" textLength="88" x="453" y="156.1592">validateContact</text>
        <path d="M80,176.0156 L141,176.0156 L141,184.3672 L131,194.3672 L80,194.3672 L80,176.0156 " fill="#EEEEEE" style="stroke:#000000;stroke-width:1.5;"/>
        <rect fill="none" height="325.1875" style="stroke:#000000;stroke-width:1.5;" width="825" x="80" y="176.0156"/>
        <text fill="#000000" font-family="sans-serif" font-size="13" font-weight="bold" lengthAdjust="spacing" textLength="16" x="95" y="190.5107">alt</text>
        <text fill="#000000" font-family="sans-serif" font-size="11" font-weight="bold" lengthAdjust="spacing" textLength="97" x="156" y="189.4346">[Validation Failed]</text>
        <polygon fill="#181818" points="331.5,212.7188,321.5,216.7188,331.5,220.7188,327.5,216.7188" style="stroke:#181818;stroke-width:1.0;"/>
        <line style="stroke:#181818;stroke-width:1.0;" x1="325.5" x2="559.5" y1="216.7188" y2="216.7188"/>
        <text fill="#000000" font-family="sans-serif" font-size="13" lengthAdjust="spacing" textLength="88" x="337.5" y="211.8623">validationFailed</text>
        <polygon fill="#181818" points="147.5,243.0703,137.5,247.0703,147.5,251.0703,143.5,247.0703" style="stroke:#181818;stroke-width:1.0;"/>
        <line style="stroke:#181818;stroke-width:1.0;" x1="141.5" x2="319.5" y1="247.0703" y2="247.0703"/>
        <text fill="#000000" font-family="sans-serif" font-size="13" lengthAdjust="spacing" textLength="160" x="153.5" y="242.2139">showError("Invalid Contact")</text>
        <line style="stroke:#000000;stroke-width:1.0;stroke-dasharray:2.0,2.0;" x1="80" x2="905" y1="256.0703" y2="256.0703"/>
        <text fill="#000000" font-family="sans-serif" font-size="11" font-weight="bold" lengthAdjust="spacing" textLength="112" x="85" y="267.4893">[Validation Success]</text>
        <polygon fill="#181818" points="658.5,289.2578,668.5,293.2578,658.5,297.2578,662.5,293.2578" style="stroke:#181818;stroke-width:1.0;"/>
        <line style="stroke:#181818;stroke-width:1.0;" x1="560.5" x2="664.5" y1="293.2578" y2="293.2578"/>
        <text fill="#000000" font-family="sans-serif" font-size="13" lengthAdjust="spacing" textLength="86" x="567.5" y="288.4014">convertContact</text>
        <polygon fill="#181818" points="800.5,319.6094,810.5,323.6094,800.5,327.6094,804.5,323.6094" style="stroke:#181818;stroke-width:1.0;"/>
        <line style="stroke:#181818;stroke-width:1.0;" x1="670.5" x2="806.5" y1="323.6094" y2="323.6094"/>
        <text fill="#000000" font-family="sans-serif" font-size="13" lengthAdjust="spacing" textLength="118" x="677.5" y="318.7529">saveToAddressBook</text>
        <path d="M90,338.6094 L151,338.6094 L151,346.9609 L141,356.9609 L90,356.9609 L90,338.6094 " fill="#EEEEEE" style="stroke:#000000;stroke-width:1.5;"/>
        <rect fill="none" height="155.5938" style="stroke:#000000;stroke-width:1.5;" width="805" x="90" y="338.6094"/>
        <text fill="#000000" font-family="sans-serif" font-size="13" font-weight="bold" lengthAdjust="spacing" textLength="16" x="105" y="353.1045">alt</text>
        <text fill="#000000" font-family="sans-serif" font-size="11" font-weight="bold" lengthAdjust="spacing" textLength="69" x="166" y="352.0283">[Save Failed]</text>
        <polygon fill="#181818" points="331.5,375.3125,321.5,379.3125,331.5,383.3125,327.5,379.3125" style="stroke:#181818;stroke-width:1.0;"/>
        <line style="stroke:#181818;stroke-width:1.0;" x1="325.5" x2="811.5" y1="379.3125" y2="379.3125"/>
        <text fill="#000000" font-family="sans-serif" font-size="13" lengthAdjust="spacing" textLength="61" x="337.5" y="374.4561">saveFailed</text>
        <polygon fill="#181818" points="147.5,405.6641,137.5,409.6641,147.5,413.6641,143.5,409.6641" style="stroke:#181818;stroke-width:1.0;"/>
        <line style="stroke:#181818;stroke-width:1.0;" x1="141.5" x2="319.5" y1="409.6641" y2="409.6641"/>
        <text fill="#000000" font-family="sans-serif" font-size="13" lengthAdjust="spacing" textLength="143" x="153.5" y="404.8076">showError("Save Failed")</text>
        <line style="stroke:#000000;stroke-width:1.0;stroke-dasharray:2.0,2.0;" x1="90" x2="895" y1="418.6641" y2="418.6641"/>
        <text fill="#000000" font-family="sans-serif" font-size="11" font-weight="bold" lengthAdjust="spacing" textLength="84" x="95" y="430.083">[Save Success]</text>
        <polygon fill="#181818" points="331.5,451.8516,321.5,455.8516,331.5,459.8516,327.5,455.8516" style="stroke:#181818;stroke-width:1.0;"/>
        <line style="stroke:#181818;stroke-width:1.0;" x1="325.5" x2="811.5" y1="455.8516" y2="455.8516"/>
        <text fill="#000000" font-family="sans-serif" font-size="13" lengthAdjust="spacing" textLength="88" x="337.5" y="450.9951">contactIsSaved</text>
        <polygon fill="#181818" points="147.5,482.2031,137.5,486.2031,147.5,490.2031,143.5,486.2031" style="stroke:#181818;stroke-width:1.0;"/>
        <line style="stroke:#181818;stroke-width:1.0;" x1="141.5" x2="319.5" y1="486.2031" y2="486.2031"/>
        <text fill="#000000" font-family="sans-serif" font-size="13" lengthAdjust="spacing" textLength="160" x="153.5" y="481.3467">showMsg("Contact Saved!")</text>
        <!--SRC=[ZP2nRiGW44HxlcBZwbBa1rn4ofqkqXMNnedx3QmI50JIGl3l1snZ4zc59LDuPnxCx8SdXgTdkAEslQQX1LJgucn06Sx1YZ8ldYonCuQuXPV5UOraW_YlPsAMQoXT_qR3B8YD8LCz6gqmuAUX5kBqGuKGQ49nQ6VX5RKX9Q2cziB61Lc8RTvr2_xR3LTcnwVcPaUsb6aU1HbFTORkLqhoVXkYlo2h5gIpaJYK2Z3Dio6ja1DvTkwd8uvQfiOU8xsxIab0-dBlBabhOzZ1zwhd2oleOEtghLGPO2mz3jUwHnF8gVdDP_vOYhl_EZNpniPdrSCKmogHpny0]-->
    </g>
</svg>
