<?xml version="1.0" encoding="UTF-8"?><svg xmlns="http://www.w3.org/2000/svg" xmlns:xlink="http://www.w3.org/1999/xlink" contentStyleType="text/css" height="645px" preserveAspectRatio="none" style="width:797px;height:645px;background:#FFFFFF;" version="1.1" viewBox="0 0 797 645" width="797px" zoomAndPan="magnify">
    <defs/>
    <g>
        <rect fill="none" height="325.1875" style="stroke:#000000;stroke-width:1.5;" width="697" x="93" y="267.0703"/>
        <rect fill="none" height="155.5938" style="stroke:#000000;stroke-width:1.5;" width="677" x="103" y="429.6641"/>
        <line style="stroke:#181818;stroke-width:0.5;stroke-dasharray:5.0,5.0;" x1="26" x2="26" y1="37.6094" y2="609.2578"/>
        <line style="stroke:#181818;stroke-width:0.5;stroke-dasharray:5.0,5.0;" x1="149" x2="149" y1="37.6094" y2="609.2578"/>
        <line style="stroke:#181818;stroke-width:0.5;stroke-dasharray:5.0,5.0;" x1="333.5" x2="333.5" y1="37.6094" y2="609.2578"/>
        <line style="stroke:#181818;stroke-width:0.5;stroke-dasharray:5.0,5.0;" x1="445.5" x2="445.5" y1="37.6094" y2="609.2578"/>
        <line style="stroke:#181818;stroke-width:0.5;stroke-dasharray:5.0,5.0;" x1="555.5" x2="555.5" y1="37.6094" y2="609.2578"/>
        <line style="stroke:#181818;stroke-width:0.5;stroke-dasharray:5.0,5.0;" x1="697" x2="697" y1="37.6094" y2="609.2578"/>
        <rect fill="#E2E2F0" height="31.6094" rx="2.5" ry="2.5" style="stroke:#181818;stroke-width:0.5;" width="43" x="5" y="5"/>
        <text fill="#000000" font-family="sans-serif" font-size="14" lengthAdjust="spacing" textLength="29" x="12" y="26.5332">User</text>
        <rect fill="#E2E2F0" height="31.6094" rx="2.5" ry="2.5" style="stroke:#181818;stroke-width:0.5;" width="43" x="5" y="608.2578"/>
        <text fill="#000000" font-family="sans-serif" font-size="14" lengthAdjust="spacing" textLength="29" x="12" y="629.791">User</text>
        <rect fill="#E2E2F0" height="31.6094" rx="2.5" ry="2.5" style="stroke:#181818;stroke-width:0.5;" width="73" x="113" y="5"/>
        <text fill="#000000" font-family="sans-serif" font-size="14" lengthAdjust="spacing" textLength="59" x="120" y="26.5332">MainView</text>
        <rect fill="#E2E2F0" height="31.6094" rx="2.5" ry="2.5" style="stroke:#181818;stroke-width:0.5;" width="73" x="113" y="608.2578"/>
        <text fill="#000000" font-family="sans-serif" font-size="14" lengthAdjust="spacing" textLength="59" x="120" y="629.791">MainView</text>
        <rect fill="#E2E2F0" height="31.6094" rx="2.5" ry="2.5" style="stroke:#181818;stroke-width:0.5;" width="106" x="280.5" y="5"/>
        <text fill="#000000" font-family="sans-serif" font-size="14" lengthAdjust="spacing" textLength="92" x="287.5" y="26.5332">MainController</text>
        <rect fill="#E2E2F0" height="31.6094" rx="2.5" ry="2.5" style="stroke:#181818;stroke-width:0.5;" width="106" x="280.5" y="608.2578"/>
        <text fill="#000000" font-family="sans-serif" font-size="14" lengthAdjust="spacing" textLength="92" x="287.5" y="629.791">MainController</text>
        <rect fill="#E2E2F0" height="31.6094" rx="2.5" ry="2.5" style="stroke:#181818;stroke-width:0.5;" width="84" x="403.5" y="5"/>
        <text fill="#000000" font-family="sans-serif" font-size="14" lengthAdjust="spacing" textLength="70" x="410.5" y="26.5332">Validatable</text>
        <rect fill="#E2E2F0" height="31.6094" rx="2.5" ry="2.5" style="stroke:#181818;stroke-width:0.5;" width="84" x="403.5" y="608.2578"/>
        <text fill="#000000" font-family="sans-serif" font-size="14" lengthAdjust="spacing" textLength="70" x="410.5" y="629.791">Validatable</text>
        <rect fill="#E2E2F0" height="31.6094" rx="2.5" ry="2.5" style="stroke:#181818;stroke-width:0.5;" width="54" x="528.5" y="5"/>
        <text fill="#000000" font-family="sans-serif" font-size="14" lengthAdjust="spacing" textLength="40" x="535.5" y="26.5332">VCard</text>
        <rect fill="#E2E2F0" height="31.6094" rx="2.5" ry="2.5" style="stroke:#181818;stroke-width:0.5;" width="54" x="528.5" y="608.2578"/>
        <text fill="#000000" font-family="sans-serif" font-size="14" lengthAdjust="spacing" textLength="40" x="535.5" y="629.791">VCard</text>
        <rect fill="#E2E2F0" height="31.6094" rx="2.5" ry="2.5" style="stroke:#181818;stroke-width:0.5;" width="145" x="625" y="5"/>
        <text fill="#000000" font-family="sans-serif" font-size="14" lengthAdjust="spacing" textLength="131" x="632" y="26.5332">AddressBookService</text>
        <rect fill="#E2E2F0" height="31.6094" rx="2.5" ry="2.5" style="stroke:#181818;stroke-width:0.5;" width="145" x="625" y="608.2578"/>
        <text fill="#000000" font-family="sans-serif" font-size="14" lengthAdjust="spacing" textLength="131" x="632" y="629.791">AddressBookService</text>
        <polygon fill="#181818" points="137.5,65.9609,147.5,69.9609,137.5,73.9609,141.5,69.9609" style="stroke:#181818;stroke-width:1.0;"/>
        <line style="stroke:#181818;stroke-width:1.0;" x1="26.5" x2="143.5" y1="69.9609" y2="69.9609"/>
        <text fill="#000000" font-family="sans-serif" font-size="13" lengthAdjust="spacing" textLength="86" x="33.5" y="65.1045">addContactBtn</text>
        <polygon fill="#181818" points="321.5,96.3125,331.5,100.3125,321.5,104.3125,325.5,100.3125" style="stroke:#181818;stroke-width:1.0;"/>
        <line style="stroke:#181818;stroke-width:1.0;" x1="149.5" x2="327.5" y1="100.3125" y2="100.3125"/>
        <text fill="#000000" font-family="sans-serif" font-size="13" lengthAdjust="spacing" textLength="100" x="156.5" y="95.4561">AddContactEvent</text>
        <polygon fill="#181818" points="160.5,126.6641,150.5,130.6641,160.5,134.6641,156.5,130.6641" style="stroke:#181818;stroke-width:1.0;"/>
        <line style="stroke:#181818;stroke-width:1.0;" x1="154.5" x2="332.5" y1="130.6641" y2="130.6641"/>
        <text fill="#000000" font-family="sans-serif" font-size="13" lengthAdjust="spacing" textLength="128" x="166.5" y="125.8076">showAddContactForm</text>
        <polygon fill="#181818" points="37.5,157.0156,27.5,161.0156,37.5,165.0156,33.5,161.0156" style="stroke:#181818;stroke-width:1.0;"/>
        <line style="stroke:#181818;stroke-width:1.0;" x1="31.5" x2="148.5" y1="161.0156" y2="161.0156"/>
        <text fill="#000000" font-family="sans-serif" font-size="13" lengthAdjust="spacing" textLength="99" x="43.5" y="156.1592">viewContactForm</text>
        <polygon fill="#181818" points="137.5,187.3672,147.5,191.3672,137.5,195.3672,141.5,191.3672" style="stroke:#181818;stroke-width:1.0;"/>
        <line style="stroke:#181818;stroke-width:1.0;" x1="26.5" x2="143.5" y1="191.3672" y2="191.3672"/>
        <text fill="#000000" font-family="sans-serif" font-size="13" lengthAdjust="spacing" textLength="77" x="33.5" y="186.5107">fillContactInfo</text>
        <polygon fill="#181818" points="321.5,217.7188,331.5,221.7188,321.5,225.7188,325.5,221.7188" style="stroke:#181818;stroke-width:1.0;"/>
        <line style="stroke:#181818;stroke-width:1.0;" x1="149.5" x2="327.5" y1="221.7188" y2="221.7188"/>
        <text fill="#000000" font-family="sans-serif" font-size="13" lengthAdjust="spacing" textLength="66" x="156.5" y="216.8623">addContact</text>
        <polygon fill="#181818" points="433.5,248.0703,443.5,252.0703,433.5,256.0703,437.5,252.0703" style="stroke:#181818;stroke-width:1.0;"/>
        <line style="stroke:#181818;stroke-width:1.0;" x1="333.5" x2="439.5" y1="252.0703" y2="252.0703"/>
        <text fill="#000000" font-family="sans-serif" font-size="13" lengthAdjust="spacing" textLength="88" x="340.5" y="247.2139">validateContact</text>
        <path d="M93,267.0703 L154,267.0703 L154,275.4219 L144,285.4219 L93,285.4219 L93,267.0703 " fill="#EEEEEE" style="stroke:#000000;stroke-width:1.5;"/>
        <rect fill="none" height="325.1875" style="stroke:#000000;stroke-width:1.5;" width="697" x="93" y="267.0703"/>
        <text fill="#000000" font-family="sans-serif" font-size="13" font-weight="bold" lengthAdjust="spacing" textLength="16" x="108" y="281.5654">alt</text>
        <text fill="#000000" font-family="sans-serif" font-size="11" font-weight="bold" lengthAdjust="spacing" textLength="97" x="169" y="280.4893">[Validation Failed]</text>
        <polygon fill="#181818" points="344.5,303.7734,334.5,307.7734,344.5,311.7734,340.5,307.7734" style="stroke:#181818;stroke-width:1.0;"/>
        <line style="stroke:#181818;stroke-width:1.0;" x1="338.5" x2="444.5" y1="307.7734" y2="307.7734"/>
        <text fill="#000000" font-family="sans-serif" font-size="13" lengthAdjust="spacing" textLength="88" x="350.5" y="302.917">validationFailed</text>
        <polygon fill="#181818" points="160.5,334.125,150.5,338.125,160.5,342.125,156.5,338.125" style="stroke:#181818;stroke-width:1.0;"/>
        <line style="stroke:#181818;stroke-width:1.0;" x1="154.5" x2="332.5" y1="338.125" y2="338.125"/>
        <text fill="#000000" font-family="sans-serif" font-size="13" lengthAdjust="spacing" textLength="160" x="166.5" y="333.2686">showError("Invalid Contact")</text>
        <line style="stroke:#000000;stroke-width:1.0;stroke-dasharray:2.0,2.0;" x1="93" x2="790" y1="347.125" y2="347.125"/>
        <text fill="#000000" font-family="sans-serif" font-size="11" font-weight="bold" lengthAdjust="spacing" textLength="112" x="98" y="358.5439">[Validation Success]</text>
        <polygon fill="#181818" points="543.5,380.3125,553.5,384.3125,543.5,388.3125,547.5,384.3125" style="stroke:#181818;stroke-width:1.0;"/>
        <line style="stroke:#181818;stroke-width:1.0;" x1="445.5" x2="549.5" y1="384.3125" y2="384.3125"/>
        <text fill="#000000" font-family="sans-serif" font-size="13" lengthAdjust="spacing" textLength="86" x="452.5" y="379.4561">convertContact</text>
        <polygon fill="#181818" points="685.5,410.6641,695.5,414.6641,685.5,418.6641,689.5,414.6641" style="stroke:#181818;stroke-width:1.0;"/>
        <line style="stroke:#181818;stroke-width:1.0;" x1="555.5" x2="691.5" y1="414.6641" y2="414.6641"/>
        <text fill="#000000" font-family="sans-serif" font-size="13" lengthAdjust="spacing" textLength="118" x="562.5" y="409.8076">saveToAddressBook</text>
        <path d="M103,429.6641 L164,429.6641 L164,438.0156 L154,448.0156 L103,448.0156 L103,429.6641 " fill="#EEEEEE" style="stroke:#000000;stroke-width:1.5;"/>
        <rect fill="none" height="155.5938" style="stroke:#000000;stroke-width:1.5;" width="677" x="103" y="429.6641"/>
        <text fill="#000000" font-family="sans-serif" font-size="13" font-weight="bold" lengthAdjust="spacing" textLength="16" x="118" y="444.1592">alt</text>
        <text fill="#000000" font-family="sans-serif" font-size="11" font-weight="bold" lengthAdjust="spacing" textLength="69" x="179" y="443.083">[Save Failed]</text>
        <polygon fill="#181818" points="344.5,466.3672,334.5,470.3672,344.5,474.3672,340.5,470.3672" style="stroke:#181818;stroke-width:1.0;"/>
        <line style="stroke:#181818;stroke-width:1.0;" x1="338.5" x2="696.5" y1="470.3672" y2="470.3672"/>
        <text fill="#000000" font-family="sans-serif" font-size="13" lengthAdjust="spacing" textLength="61" x="350.5" y="465.5107">saveFailed</text>
        <polygon fill="#181818" points="160.5,496.7188,150.5,500.7188,160.5,504.7188,156.5,500.7188" style="stroke:#181818;stroke-width:1.0;"/>
        <line style="stroke:#181818;stroke-width:1.0;" x1="154.5" x2="332.5" y1="500.7188" y2="500.7188"/>
        <text fill="#000000" font-family="sans-serif" font-size="13" lengthAdjust="spacing" textLength="143" x="166.5" y="495.8623">showError("Save Failed")</text>
        <line style="stroke:#000000;stroke-width:1.0;stroke-dasharray:2.0,2.0;" x1="103" x2="780" y1="509.7188" y2="509.7188"/>
        <text fill="#000000" font-family="sans-serif" font-size="11" font-weight="bold" lengthAdjust="spacing" textLength="84" x="108" y="521.1377">[Save Success]</text>
        <polygon fill="#181818" points="344.5,542.9063,334.5,546.9063,344.5,550.9063,340.5,546.9063" style="stroke:#181818;stroke-width:1.0;"/>
        <line style="stroke:#181818;stroke-width:1.0;" x1="338.5" x2="696.5" y1="546.9063" y2="546.9063"/>
        <text fill="#000000" font-family="sans-serif" font-size="13" lengthAdjust="spacing" textLength="88" x="350.5" y="542.0498">contactIsSaved</text>
        <polygon fill="#181818" points="160.5,573.2578,150.5,577.2578,160.5,581.2578,156.5,577.2578" style="stroke:#181818;stroke-width:1.0;"/>
        <line style="stroke:#181818;stroke-width:1.0;" x1="154.5" x2="332.5" y1="577.2578" y2="577.2578"/>
        <text fill="#000000" font-family="sans-serif" font-size="13" lengthAdjust="spacing" textLength="160" x="166.5" y="572.4014">showMsg("Contact Saved!")</text>
        <!--SRC=[ZPAnRiCW48PtdkBgAHtw0XugDL4YPSZasZk5IujAE0aeUVs2RMoiMAqbCt3t_tV_XzmwjF3o2XUkJAVmNWENya36S-7tth1SpvhKigGrsXhU9kKneF5isLzETLzqd_KdihV5wDQbWI7UIaNx4Ewgj1uLPtEbF-FD82l9EgwLv9v_Q8nxXmjcEUFQPuKY0oUkD4e6fMjjOvWia-E_DpbQItPNdKtlXJ51zSnGEompD3z2e7EF8Re3jx86GIQWzHa1XdeIn6UtqRad-cxG1YKYiUC1twdeH4Fy4dSJMpCnhDZNqDF0mhGHkzWLaG5wwBuuusvD8CRVmYN_jXGNzxchnXVhrygd8OQHB9rV]-->
    </g>
</svg>
