<?xml version="1.0" encoding="UTF-8"?><svg xmlns="http://www.w3.org/2000/svg" xmlns:xlink="http://www.w3.org/1999/xlink" contentStyleType="text/css" height="706px" preserveAspectRatio="none" style="width:880px;height:706px;background:#FFFFFF;" version="1.1" viewBox="0 0 880 706" width="880px" zoomAndPan="magnify">
    <defs/>
    <g>
        <rect fill="none" height="385.8906" style="stroke:#000000;stroke-width:1.5;" width="863" x="10" y="267.0703"/>
        <rect fill="none" height="216.2969" style="stroke:#000000;stroke-width:1.5;" width="843" x="20" y="429.6641"/>
        <line style="stroke:#181818;stroke-width:0.5;stroke-dasharray:5.0,5.0;" x1="51" x2="51" y1="37.6094" y2="669.9609"/>
        <line style="stroke:#181818;stroke-width:0.5;stroke-dasharray:5.0,5.0;" x1="232" x2="232" y1="37.6094" y2="669.9609"/>
        <line style="stroke:#181818;stroke-width:0.5;stroke-dasharray:5.0,5.0;" x1="416.5" x2="416.5" y1="37.6094" y2="669.9609"/>
        <line style="stroke:#181818;stroke-width:0.5;stroke-dasharray:5.0,5.0;" x1="528.5" x2="528.5" y1="37.6094" y2="669.9609"/>
        <line style="stroke:#181818;stroke-width:0.5;stroke-dasharray:5.0,5.0;" x1="638.5" x2="638.5" y1="37.6094" y2="669.9609"/>
        <line style="stroke:#181818;stroke-width:0.5;stroke-dasharray:5.0,5.0;" x1="780" x2="780" y1="37.6094" y2="669.9609"/>
        <rect fill="#E2E2F0" height="31.6094" rx="2.5" ry="2.5" style="stroke:#181818;stroke-width:0.5;" width="43" x="30" y="5"/>
        <text fill="#000000" font-family="sans-serif" font-size="14" lengthAdjust="spacing" textLength="29" x="37" y="26.5332">User</text>
        <rect fill="#E2E2F0" height="31.6094" rx="2.5" ry="2.5" style="stroke:#181818;stroke-width:0.5;" width="43" x="30" y="668.9609"/>
        <text fill="#000000" font-family="sans-serif" font-size="14" lengthAdjust="spacing" textLength="29" x="37" y="690.4941">User</text>
        <rect fill="#E2E2F0" height="31.6094" rx="2.5" ry="2.5" style="stroke:#181818;stroke-width:0.5;" width="73" x="196" y="5"/>
        <text fill="#000000" font-family="sans-serif" font-size="14" lengthAdjust="spacing" textLength="59" x="203" y="26.5332">MainView</text>
        <rect fill="#E2E2F0" height="31.6094" rx="2.5" ry="2.5" style="stroke:#181818;stroke-width:0.5;" width="73" x="196" y="668.9609"/>
        <text fill="#000000" font-family="sans-serif" font-size="14" lengthAdjust="spacing" textLength="59" x="203" y="690.4941">MainView</text>
        <rect fill="#E2E2F0" height="31.6094" rx="2.5" ry="2.5" style="stroke:#181818;stroke-width:0.5;" width="106" x="363.5" y="5"/>
        <text fill="#000000" font-family="sans-serif" font-size="14" lengthAdjust="spacing" textLength="92" x="370.5" y="26.5332">MainController</text>
        <rect fill="#E2E2F0" height="31.6094" rx="2.5" ry="2.5" style="stroke:#181818;stroke-width:0.5;" width="106" x="363.5" y="668.9609"/>
        <text fill="#000000" font-family="sans-serif" font-size="14" lengthAdjust="spacing" textLength="92" x="370.5" y="690.4941">MainController</text>
        <rect fill="#E2E2F0" height="31.6094" rx="2.5" ry="2.5" style="stroke:#181818;stroke-width:0.5;" width="84" x="486.5" y="5"/>
        <text fill="#000000" font-family="sans-serif" font-size="14" lengthAdjust="spacing" textLength="70" x="493.5" y="26.5332">Validatable</text>
        <rect fill="#E2E2F0" height="31.6094" rx="2.5" ry="2.5" style="stroke:#181818;stroke-width:0.5;" width="84" x="486.5" y="668.9609"/>
        <text fill="#000000" font-family="sans-serif" font-size="14" lengthAdjust="spacing" textLength="70" x="493.5" y="690.4941">Validatable</text>
        <rect fill="#E2E2F0" height="31.6094" rx="2.5" ry="2.5" style="stroke:#181818;stroke-width:0.5;" width="54" x="611.5" y="5"/>
        <text fill="#000000" font-family="sans-serif" font-size="14" lengthAdjust="spacing" textLength="40" x="618.5" y="26.5332">VCard</text>
        <rect fill="#E2E2F0" height="31.6094" rx="2.5" ry="2.5" style="stroke:#181818;stroke-width:0.5;" width="54" x="611.5" y="668.9609"/>
        <text fill="#000000" font-family="sans-serif" font-size="14" lengthAdjust="spacing" textLength="40" x="618.5" y="690.4941">VCard</text>
        <rect fill="#E2E2F0" height="31.6094" rx="2.5" ry="2.5" style="stroke:#181818;stroke-width:0.5;" width="145" x="708" y="5"/>
        <text fill="#000000" font-family="sans-serif" font-size="14" lengthAdjust="spacing" textLength="131" x="715" y="26.5332">AddressBookService</text>
        <rect fill="#E2E2F0" height="31.6094" rx="2.5" ry="2.5" style="stroke:#181818;stroke-width:0.5;" width="145" x="708" y="668.9609"/>
        <text fill="#000000" font-family="sans-serif" font-size="14" lengthAdjust="spacing" textLength="131" x="715" y="690.4941">AddressBookService</text>
        <polygon fill="#181818" points="220.5,65.9609,230.5,69.9609,220.5,73.9609,224.5,69.9609" style="stroke:#181818;stroke-width:1.0;"/>
        <line style="stroke:#181818;stroke-width:1.0;" x1="51.5" x2="226.5" y1="69.9609" y2="69.9609"/>
        <text fill="#000000" font-family="sans-serif" font-size="13" lengthAdjust="spacing" textLength="86" x="58.5" y="65.1045">addContactBtn</text>
        <polygon fill="#181818" points="404.5,96.3125,414.5,100.3125,404.5,104.3125,408.5,100.3125" style="stroke:#181818;stroke-width:1.0;"/>
        <line style="stroke:#181818;stroke-width:1.0;" x1="232.5" x2="410.5" y1="100.3125" y2="100.3125"/>
        <text fill="#000000" font-family="sans-serif" font-size="13" lengthAdjust="spacing" textLength="100" x="239.5" y="95.4561">AddContactEvent</text>
        <polygon fill="#181818" points="243.5,126.6641,233.5,130.6641,243.5,134.6641,239.5,130.6641" style="stroke:#181818;stroke-width:1.0;"/>
        <line style="stroke:#181818;stroke-width:1.0;" x1="237.5" x2="415.5" y1="130.6641" y2="130.6641"/>
        <text fill="#000000" font-family="sans-serif" font-size="13" lengthAdjust="spacing" textLength="128" x="249.5" y="125.8076">showAddContactForm</text>
        <polygon fill="#181818" points="62.5,157.0156,52.5,161.0156,62.5,165.0156,58.5,161.0156" style="stroke:#181818;stroke-width:1.0;"/>
        <line style="stroke:#181818;stroke-width:1.0;" x1="56.5" x2="231.5" y1="161.0156" y2="161.0156"/>
        <text fill="#000000" font-family="sans-serif" font-size="13" lengthAdjust="spacing" textLength="99" x="68.5" y="156.1592">viewContactForm</text>
        <polygon fill="#181818" points="220.5,187.3672,230.5,191.3672,220.5,195.3672,224.5,191.3672" style="stroke:#181818;stroke-width:1.0;"/>
        <line style="stroke:#181818;stroke-width:1.0;" x1="51.5" x2="226.5" y1="191.3672" y2="191.3672"/>
        <text fill="#000000" font-family="sans-serif" font-size="13" lengthAdjust="spacing" textLength="77" x="58.5" y="186.5107">fillContactInfo</text>
        <polygon fill="#181818" points="404.5,217.7188,414.5,221.7188,404.5,225.7188,408.5,221.7188" style="stroke:#181818;stroke-width:1.0;"/>
        <line style="stroke:#181818;stroke-width:1.0;" x1="232.5" x2="410.5" y1="221.7188" y2="221.7188"/>
        <text fill="#000000" font-family="sans-serif" font-size="13" lengthAdjust="spacing" textLength="66" x="239.5" y="216.8623">addContact</text>
        <polygon fill="#181818" points="516.5,248.0703,526.5,252.0703,516.5,256.0703,520.5,252.0703" style="stroke:#181818;stroke-width:1.0;"/>
        <line style="stroke:#181818;stroke-width:1.0;" x1="416.5" x2="522.5" y1="252.0703" y2="252.0703"/>
        <text fill="#000000" font-family="sans-serif" font-size="13" lengthAdjust="spacing" textLength="88" x="423.5" y="247.2139">validateContact</text>
        <path d="M10,267.0703 L71,267.0703 L71,275.4219 L61,285.4219 L10,285.4219 L10,267.0703 " fill="#EEEEEE" style="stroke:#000000;stroke-width:1.5;"/>
        <rect fill="none" height="385.8906" style="stroke:#000000;stroke-width:1.5;" width="863" x="10" y="267.0703"/>
        <text fill="#000000" font-family="sans-serif" font-size="13" font-weight="bold" lengthAdjust="spacing" textLength="16" x="25" y="281.5654">alt</text>
        <text fill="#000000" font-family="sans-serif" font-size="11" font-weight="bold" lengthAdjust="spacing" textLength="97" x="86" y="280.4893">[Validation Failed]</text>
        <polygon fill="#181818" points="427.5,303.7734,417.5,307.7734,427.5,311.7734,423.5,307.7734" style="stroke:#181818;stroke-width:1.0;"/>
        <line style="stroke:#181818;stroke-width:1.0;" x1="421.5" x2="527.5" y1="307.7734" y2="307.7734"/>
        <text fill="#000000" font-family="sans-serif" font-size="13" lengthAdjust="spacing" textLength="88" x="433.5" y="302.917">validationFailed</text>
        <polygon fill="#181818" points="243.5,334.125,233.5,338.125,243.5,342.125,239.5,338.125" style="stroke:#181818;stroke-width:1.0;"/>
        <line style="stroke:#181818;stroke-width:1.0;" x1="237.5" x2="415.5" y1="338.125" y2="338.125"/>
        <text fill="#000000" font-family="sans-serif" font-size="13" lengthAdjust="spacing" textLength="160" x="249.5" y="333.2686">showError("Invalid Contact")</text>
        <line style="stroke:#000000;stroke-width:1.0;stroke-dasharray:2.0,2.0;" x1="10" x2="873" y1="347.125" y2="347.125"/>
        <text fill="#000000" font-family="sans-serif" font-size="11" font-weight="bold" lengthAdjust="spacing" textLength="112" x="15" y="358.5439">[Validation Success]</text>
        <polygon fill="#181818" points="626.5,380.3125,636.5,384.3125,626.5,388.3125,630.5,384.3125" style="stroke:#181818;stroke-width:1.0;"/>
        <line style="stroke:#181818;stroke-width:1.0;" x1="528.5" x2="632.5" y1="384.3125" y2="384.3125"/>
        <text fill="#000000" font-family="sans-serif" font-size="13" lengthAdjust="spacing" textLength="86" x="535.5" y="379.4561">convertContact</text>
        <polygon fill="#181818" points="768.5,410.6641,778.5,414.6641,768.5,418.6641,772.5,414.6641" style="stroke:#181818;stroke-width:1.0;"/>
        <line style="stroke:#181818;stroke-width:1.0;" x1="638.5" x2="774.5" y1="414.6641" y2="414.6641"/>
        <text fill="#000000" font-family="sans-serif" font-size="13" lengthAdjust="spacing" textLength="118" x="645.5" y="409.8076">saveToAddressBook</text>
        <path d="M20,429.6641 L81,429.6641 L81,438.0156 L71,448.0156 L20,448.0156 L20,429.6641 " fill="#EEEEEE" style="stroke:#000000;stroke-width:1.5;"/>
        <rect fill="none" height="216.2969" style="stroke:#000000;stroke-width:1.5;" width="843" x="20" y="429.6641"/>
        <text fill="#000000" font-family="sans-serif" font-size="13" font-weight="bold" lengthAdjust="spacing" textLength="16" x="35" y="444.1592">alt</text>
        <text fill="#000000" font-family="sans-serif" font-size="11" font-weight="bold" lengthAdjust="spacing" textLength="69" x="96" y="443.083">[Save Failed]</text>
        <polygon fill="#181818" points="427.5,466.3672,417.5,470.3672,427.5,474.3672,423.5,470.3672" style="stroke:#181818;stroke-width:1.0;"/>
        <line style="stroke:#181818;stroke-width:1.0;" x1="421.5" x2="779.5" y1="470.3672" y2="470.3672"/>
        <text fill="#000000" font-family="sans-serif" font-size="13" lengthAdjust="spacing" textLength="61" x="433.5" y="465.5107">saveFailed</text>
        <polygon fill="#181818" points="243.5,496.7188,233.5,500.7188,243.5,504.7188,239.5,500.7188" style="stroke:#181818;stroke-width:1.0;"/>
        <line style="stroke:#181818;stroke-width:1.0;" x1="237.5" x2="415.5" y1="500.7188" y2="500.7188"/>
        <text fill="#000000" font-family="sans-serif" font-size="13" lengthAdjust="spacing" textLength="143" x="249.5" y="495.8623">showError("Save Failed")</text>
        <polygon fill="#181818" points="62.5,527.0703,52.5,531.0703,62.5,535.0703,58.5,531.0703" style="stroke:#181818;stroke-width:1.0;"/>
        <line style="stroke:#181818;stroke-width:1.0;" x1="56.5" x2="231.5" y1="531.0703" y2="531.0703"/>
        <text fill="#000000" font-family="sans-serif" font-size="13" lengthAdjust="spacing" textLength="137" x="68.5" y="526.2139">viewError("Save Failed")</text>
        <line style="stroke:#000000;stroke-width:1.0;stroke-dasharray:2.0,2.0;" x1="20" x2="863" y1="540.0703" y2="540.0703"/>
        <text fill="#000000" font-family="sans-serif" font-size="11" font-weight="bold" lengthAdjust="spacing" textLength="84" x="25" y="551.4893">[Save Success]</text>
        <polygon fill="#181818" points="427.5,573.2578,417.5,577.2578,427.5,581.2578,423.5,577.2578" style="stroke:#181818;stroke-width:1.0;"/>
        <line style="stroke:#181818;stroke-width:1.0;" x1="421.5" x2="779.5" y1="577.2578" y2="577.2578"/>
        <text fill="#000000" font-family="sans-serif" font-size="13" lengthAdjust="spacing" textLength="88" x="433.5" y="572.4014">contactIsSaved</text>
        <polygon fill="#181818" points="243.5,603.6094,233.5,607.6094,243.5,611.6094,239.5,607.6094" style="stroke:#181818;stroke-width:1.0;"/>
        <line style="stroke:#181818;stroke-width:1.0;" x1="237.5" x2="415.5" y1="607.6094" y2="607.6094"/>
        <text fill="#000000" font-family="sans-serif" font-size="13" lengthAdjust="spacing" textLength="160" x="249.5" y="602.7529">showMsg("Contact Saved!")</text>
        <polygon fill="#181818" points="62.5,633.9609,52.5,637.9609,62.5,641.9609,58.5,637.9609" style="stroke:#181818;stroke-width:1.0;"/>
        <line style="stroke:#181818;stroke-width:1.0;" x1="56.5" x2="231.5" y1="637.9609" y2="637.9609"/>
        <text fill="#000000" font-family="sans-serif" font-size="13" lengthAdjust="spacing" textLength="157" x="68.5" y="633.1045">viewError("Contact Saved!")</text>
        <!--SRC=[ZPAnRiCW48Ptde9wIeU-W8TAJPH86JAvzaxXqg9IJZeeUVs2OsmikwqbUu3xlxl_Fz4w8Fxqp2z2sqx3hUP2gGDQBwJVUyloVTQa4g4nG3L_6PN70DQpUNtUrNtWRTAVaBvchLkN6ePuAXNjmjnL6pCeplQAVzgRWgmuwuJHIdZnPY3ElHyWovamFYiqMduIse1YlAJM9eOH6Od_Td8aGjfLPzkpV71GFJ8m3aeFpRUKuDpIH7SGf6ekqGOWdoFm-tqInBLJ9FU8dmrGq38cTYB0AnQL2CGlvMvYQKhCL_2rwAbX0MsCNSoAaJEuV1I_oFiTzPVJThOQbiChSedVPlhYtdVLiE1-h7hOudg50AjO-dy0]-->
    </g>
</svg>
