<?xml version="1.0" encoding="UTF-8"?><svg xmlns="http://www.w3.org/2000/svg" xmlns:xlink="http://www.w3.org/1999/xlink" contentStyleType="text/css" height="887px" preserveAspectRatio="none" style="width:1024px;height:887px;background:#FFFFFF;" version="1.1" viewBox="0 0 1024 887" width="1024px" zoomAndPan="magnify">
    <defs/>
    <g>
        <rect fill="none" height="109.4063" style="stroke:#000000;stroke-width:1.5;" width="793.5" x="131" y="570.5859"/>
        <rect fill="none" height="139.7578" style="stroke:#000000;stroke-width:1.5;" width="1008.5" x="10" y="693.9922"/>
        <line style="stroke:#181818;stroke-width:0.5;stroke-dasharray:5.0,5.0;" x1="41" x2="41" y1="37.6094" y2="850.75"/>
        <line style="stroke:#181818;stroke-width:0.5;stroke-dasharray:5.0,5.0;" x1="177" x2="177" y1="37.6094" y2="850.75"/>
        <line style="stroke:#181818;stroke-width:0.5;stroke-dasharray:5.0,5.0;" x1="384.5" x2="384.5" y1="37.6094" y2="850.75"/>
        <line style="stroke:#181818;stroke-width:0.5;stroke-dasharray:5.0,5.0;" x1="519.5" x2="519.5" y1="37.6094" y2="850.75"/>
        <line style="stroke:#181818;stroke-width:0.5;stroke-dasharray:5.0,5.0;" x1="672.5" x2="672.5" y1="37.6094" y2="850.75"/>
        <line style="stroke:#181818;stroke-width:0.5;stroke-dasharray:5.0,5.0;" x1="801.5" x2="801.5" y1="37.6094" y2="850.75"/>
        <line style="stroke:#181818;stroke-width:0.5;stroke-dasharray:5.0,5.0;" x1="887.5" x2="887.5" y1="37.6094" y2="850.75"/>
        <line style="stroke:#181818;stroke-width:0.5;stroke-dasharray:5.0,5.0;" x1="966.5" x2="966.5" y1="37.6094" y2="850.75"/>
        <rect fill="#E2E2F0" height="31.6094" rx="2.5" ry="2.5" style="stroke:#181818;stroke-width:0.5;" width="43" x="20" y="5"/>
        <text fill="#000000" font-family="sans-serif" font-size="14" lengthAdjust="spacing" textLength="29" x="27" y="26.5332">User</text>
        <rect fill="#E2E2F0" height="31.6094" rx="2.5" ry="2.5" style="stroke:#181818;stroke-width:0.5;" width="43" x="20" y="849.75"/>
        <text fill="#000000" font-family="sans-serif" font-size="14" lengthAdjust="spacing" textLength="29" x="27" y="871.2832">User</text>
        <rect fill="#E2E2F0" height="31.6094" rx="2.5" ry="2.5" style="stroke:#181818;stroke-width:0.5;" width="73" x="141" y="5"/>
        <text fill="#000000" font-family="sans-serif" font-size="14" lengthAdjust="spacing" textLength="59" x="148" y="26.5332">MainView</text>
        <rect fill="#E2E2F0" height="31.6094" rx="2.5" ry="2.5" style="stroke:#181818;stroke-width:0.5;" width="73" x="141" y="849.75"/>
        <text fill="#000000" font-family="sans-serif" font-size="14" lengthAdjust="spacing" textLength="59" x="148" y="871.2832">MainView</text>
        <rect fill="#E2E2F0" height="31.6094" rx="2.5" ry="2.5" style="stroke:#181818;stroke-width:0.5;" width="106" x="331.5" y="5"/>
        <text fill="#000000" font-family="sans-serif" font-size="14" lengthAdjust="spacing" textLength="92" x="338.5" y="26.5332">MainController</text>
        <rect fill="#E2E2F0" height="31.6094" rx="2.5" ry="2.5" style="stroke:#181818;stroke-width:0.5;" width="106" x="331.5" y="849.75"/>
        <text fill="#000000" font-family="sans-serif" font-size="14" lengthAdjust="spacing" textLength="92" x="338.5" y="871.2832">MainController</text>
        <rect fill="#E2E2F0" height="31.6094" rx="2.5" ry="2.5" style="stroke:#181818;stroke-width:0.5;" width="145" x="447.5" y="5"/>
        <text fill="#000000" font-family="sans-serif" font-size="14" lengthAdjust="spacing" textLength="131" x="454.5" y="26.5332">AddressBookService</text>
        <rect fill="#E2E2F0" height="31.6094" rx="2.5" ry="2.5" style="stroke:#181818;stroke-width:0.5;" width="145" x="447.5" y="849.75"/>
        <text fill="#000000" font-family="sans-serif" font-size="14" lengthAdjust="spacing" textLength="131" x="454.5" y="871.2832">AddressBookService</text>
        <rect fill="#E2E2F0" height="31.6094" rx="2.5" ry="2.5" style="stroke:#181818;stroke-width:0.5;" width="140" x="602.5" y="5"/>
        <text fill="#000000" font-family="sans-serif" font-size="14" lengthAdjust="spacing" textLength="126" x="609.5" y="26.5332">ImportExportService</text>
        <rect fill="#E2E2F0" height="31.6094" rx="2.5" ry="2.5" style="stroke:#181818;stroke-width:0.5;" width="140" x="602.5" y="849.75"/>
        <text fill="#000000" font-family="sans-serif" font-size="14" lengthAdjust="spacing" textLength="126" x="609.5" y="871.2832">ImportExportService</text>
        <rect fill="#E2E2F0" height="31.6094" rx="2.5" ry="2.5" style="stroke:#181818;stroke-width:0.5;" width="98" x="752.5" y="5"/>
        <text fill="#000000" font-family="sans-serif" font-size="14" lengthAdjust="spacing" textLength="84" x="759.5" y="26.5332">AddressBook</text>
        <rect fill="#E2E2F0" height="31.6094" rx="2.5" ry="2.5" style="stroke:#181818;stroke-width:0.5;" width="98" x="752.5" y="849.75"/>
        <text fill="#000000" font-family="sans-serif" font-size="14" lengthAdjust="spacing" textLength="84" x="759.5" y="871.2832">AddressBook</text>
        <rect fill="#E2E2F0" height="31.6094" rx="2.5" ry="2.5" style="stroke:#181818;stroke-width:0.5;" width="54" x="860.5" y="5"/>
        <text fill="#000000" font-family="sans-serif" font-size="14" lengthAdjust="spacing" textLength="40" x="867.5" y="26.5332">VCard</text>
        <rect fill="#E2E2F0" height="31.6094" rx="2.5" ry="2.5" style="stroke:#181818;stroke-width:0.5;" width="54" x="860.5" y="849.75"/>
        <text fill="#000000" font-family="sans-serif" font-size="14" lengthAdjust="spacing" textLength="40" x="867.5" y="871.2832">VCard</text>
        <rect fill="#E2E2F0" height="31.6094" rx="2.5" ry="2.5" style="stroke:#181818;stroke-width:0.5;" width="84" x="924.5" y="5"/>
        <text fill="#000000" font-family="sans-serif" font-size="14" lengthAdjust="spacing" textLength="70" x="931.5" y="26.5332">FileService</text>
        <rect fill="#E2E2F0" height="31.6094" rx="2.5" ry="2.5" style="stroke:#181818;stroke-width:0.5;" width="84" x="924.5" y="849.75"/>
        <text fill="#000000" font-family="sans-serif" font-size="14" lengthAdjust="spacing" textLength="70" x="931.5" y="871.2832">FileService</text>
        <polygon fill="#181818" points="165.5,65.9609,175.5,69.9609,165.5,73.9609,169.5,69.9609" style="stroke:#181818;stroke-width:1.0;"/>
        <line style="stroke:#181818;stroke-width:1.0;" x1="41.5" x2="171.5" y1="69.9609" y2="69.9609"/>
        <text fill="#000000" font-family="sans-serif" font-size="13" lengthAdjust="spacing" textLength="88" x="48.5" y="65.1045">exportContacts</text>
        <polygon fill="#181818" points="372.5,96.3125,382.5,100.3125,372.5,104.3125,376.5,100.3125" style="stroke:#181818;stroke-width:1.0;"/>
        <line style="stroke:#181818;stroke-width:1.0;" x1="177.5" x2="378.5" y1="100.3125" y2="100.3125"/>
        <text fill="#000000" font-family="sans-serif" font-size="13" lengthAdjust="spacing" textLength="120" x="184.5" y="95.4561">exportContactsEvent</text>
        <polygon fill="#181818" points="188.5,126.6641,178.5,130.6641,188.5,134.6641,184.5,130.6641" style="stroke:#181818;stroke-width:1.0;"/>
        <line style="stroke:#181818;stroke-width:1.0;" x1="182.5" x2="383.5" y1="130.6641" y2="130.6641"/>
        <text fill="#000000" font-family="sans-serif" font-size="13" lengthAdjust="spacing" textLength="121" x="194.5" y="125.8076">requestExportDetails</text>
        <polygon fill="#181818" points="52.5,157.0156,42.5,161.0156,52.5,165.0156,48.5,161.0156" style="stroke:#181818;stroke-width:1.0;"/>
        <line style="stroke:#181818;stroke-width:1.0;" x1="46.5" x2="176.5" y1="161.0156" y2="161.0156"/>
        <text fill="#000000" font-family="sans-serif" font-size="13" lengthAdjust="spacing" textLength="112" x="58.5" y="156.1592">askFormatAndPath</text>
        <polygon fill="#181818" points="165.5,187.3672,175.5,191.3672,165.5,195.3672,169.5,191.3672" style="stroke:#181818;stroke-width:1.0;"/>
        <line style="stroke:#181818;stroke-width:1.0;" x1="41.5" x2="171.5" y1="191.3672" y2="191.3672"/>
        <text fill="#000000" font-family="sans-serif" font-size="13" lengthAdjust="spacing" textLength="80" x="48.5" y="186.5107">provideDetails</text>
        <polygon fill="#181818" points="372.5,217.7188,382.5,221.7188,372.5,225.7188,376.5,221.7188" style="stroke:#181818;stroke-width:1.0;"/>
        <line style="stroke:#181818;stroke-width:1.0;" x1="177.5" x2="378.5" y1="221.7188" y2="221.7188"/>
        <text fill="#000000" font-family="sans-serif" font-size="13" lengthAdjust="spacing" textLength="183" x="184.5" y="216.8623">sendExportDetails(format, path)</text>
        <polygon fill="#181818" points="508,248.0703,518,252.0703,508,256.0703,512,252.0703" style="stroke:#181818;stroke-width:1.0;"/>
        <line style="stroke:#181818;stroke-width:1.0;" x1="384.5" x2="514" y1="252.0703" y2="252.0703"/>
        <text fill="#000000" font-family="sans-serif" font-size="13" lengthAdjust="spacing" textLength="84" x="391.5" y="247.2139">getContactList</text>
        <polygon fill="#181818" points="660.5,278.4219,670.5,282.4219,660.5,286.4219,664.5,282.4219" style="stroke:#181818;stroke-width:1.0;"/>
        <line style="stroke:#181818;stroke-width:1.0;" x1="520" x2="666.5" y1="282.4219" y2="282.4219"/>
        <text fill="#000000" font-family="sans-serif" font-size="13" lengthAdjust="spacing" textLength="90" x="527" y="277.5654">getContactData</text>
        <polygon fill="#181818" points="789.5,308.7734,799.5,312.7734,789.5,316.7734,793.5,312.7734" style="stroke:#181818;stroke-width:1.0;"/>
        <line style="stroke:#181818;stroke-width:1.0;" x1="672.5" x2="795.5" y1="312.7734" y2="312.7734"/>
        <text fill="#000000" font-family="sans-serif" font-size="13" lengthAdjust="spacing" textLength="70" x="679.5" y="307.917">getContacts</text>
        <polygon fill="#181818" points="683.5,339.125,673.5,343.125,683.5,347.125,679.5,343.125" style="stroke:#181818;stroke-width:1.0;"/>
        <line style="stroke:#181818;stroke-width:1.0;" x1="677.5" x2="800.5" y1="343.125" y2="343.125"/>
        <text fill="#000000" font-family="sans-serif" font-size="13" lengthAdjust="spacing" textLength="85" x="689.5" y="338.2686">returnContacts</text>
        <polygon fill="#181818" points="875.5,369.4766,885.5,373.4766,875.5,377.4766,879.5,373.4766" style="stroke:#181818;stroke-width:1.0;"/>
        <line style="stroke:#181818;stroke-width:1.0;" x1="672.5" x2="881.5" y1="373.4766" y2="373.4766"/>
        <text fill="#000000" font-family="sans-serif" font-size="13" lengthAdjust="spacing" textLength="127" x="679.5" y="368.6201">convertContactFormat</text>
        <polygon fill="#181818" points="683.5,399.8281,673.5,403.8281,683.5,407.8281,679.5,403.8281" style="stroke:#181818;stroke-width:1.0;"/>
        <line style="stroke:#181818;stroke-width:1.0;" x1="677.5" x2="886.5" y1="403.8281" y2="403.8281"/>
        <text fill="#000000" font-family="sans-serif" font-size="13" lengthAdjust="spacing" textLength="117" x="689.5" y="398.9717">returnConvertedData</text>
        <polygon fill="#181818" points="954.5,430.1797,964.5,434.1797,954.5,438.1797,958.5,434.1797" style="stroke:#181818;stroke-width:1.0;"/>
        <line style="stroke:#181818;stroke-width:1.0;stroke-dasharray:2.0,2.0;" x1="672.5" x2="960.5" y1="434.1797" y2="434.1797"/>
        <text fill="#000000" font-family="sans-serif" font-size="13" lengthAdjust="spacing" textLength="142" x="679.5" y="429.3232">saveToExportFile(async)</text>
        <polygon fill="#181818" points="683.5,460.5313,673.5,464.5313,683.5,468.5313,679.5,464.5313" style="stroke:#181818;stroke-width:1.0;"/>
        <line style="stroke:#181818;stroke-width:1.0;" x1="677.5" x2="965.5" y1="464.5313" y2="464.5313"/>
        <text fill="#000000" font-family="sans-serif" font-size="13" lengthAdjust="spacing" textLength="100" x="689.5" y="459.6748">ExportCompleted</text>
        <polygon fill="#181818" points="395.5,490.8828,385.5,494.8828,395.5,498.8828,391.5,494.8828" style="stroke:#181818;stroke-width:1.0;"/>
        <line style="stroke:#181818;stroke-width:1.0;" x1="389.5" x2="671.5" y1="494.8828" y2="494.8828"/>
        <text fill="#000000" font-family="sans-serif" font-size="13" lengthAdjust="spacing" textLength="100" x="401.5" y="490.0264">ExportCompleted</text>
        <polygon fill="#181818" points="188.5,521.2344,178.5,525.2344,188.5,529.2344,184.5,525.2344" style="stroke:#181818;stroke-width:1.0;"/>
        <line style="stroke:#181818;stroke-width:1.0;" x1="182.5" x2="383.5" y1="525.2344" y2="525.2344"/>
        <text fill="#000000" font-family="sans-serif" font-size="13" lengthAdjust="spacing" textLength="171" x="194.5" y="520.3779">showMsg("exportCompleted")</text>
        <polygon fill="#181818" points="52.5,551.5859,42.5,555.5859,52.5,559.5859,48.5,555.5859" style="stroke:#181818;stroke-width:1.0;"/>
        <line style="stroke:#181818;stroke-width:1.0;" x1="46.5" x2="176.5" y1="555.5859" y2="555.5859"/>
        <text fill="#000000" font-family="sans-serif" font-size="13" lengthAdjust="spacing" textLength="53" x="58.5" y="550.7295">ViewMsg</text>
        <path d="M131,570.5859 L192,570.5859 L192,578.9375 L182,588.9375 L131,588.9375 L131,570.5859 " fill="#EEEEEE" style="stroke:#000000;stroke-width:1.5;"/>
        <rect fill="none" height="109.4063" style="stroke:#000000;stroke-width:1.5;" width="793.5" x="131" y="570.5859"/>
        <text fill="#000000" font-family="sans-serif" font-size="13" font-weight="bold" lengthAdjust="spacing" textLength="16" x="146" y="585.0811">alt</text>
        <text fill="#000000" font-family="sans-serif" font-size="11" font-weight="bold" lengthAdjust="spacing" textLength="103" x="207" y="584.0049">[Conversion Error]</text>
        <polygon fill="#181818" points="683.5,607.2891,673.5,611.2891,683.5,615.2891,679.5,611.2891" style="stroke:#181818;stroke-width:1.0;"/>
        <line style="stroke:#181818;stroke-width:1.0;" x1="677.5" x2="886.5" y1="611.2891" y2="611.2891"/>
        <text fill="#000000" font-family="sans-serif" font-size="13" lengthAdjust="spacing" textLength="98" x="689.5" y="606.4326">ConversionFailed</text>
        <polygon fill="#181818" points="395.5,637.6406,385.5,641.6406,395.5,645.6406,391.5,641.6406" style="stroke:#181818;stroke-width:1.0;"/>
        <line style="stroke:#181818;stroke-width:1.0;" x1="389.5" x2="671.5" y1="641.6406" y2="641.6406"/>
        <text fill="#000000" font-family="sans-serif" font-size="13" lengthAdjust="spacing" textLength="98" x="401.5" y="636.7842">ConversionFailed</text>
        <polygon fill="#181818" points="188.5,667.9922,178.5,671.9922,188.5,675.9922,184.5,671.9922" style="stroke:#181818;stroke-width:1.0;"/>
        <line style="stroke:#181818;stroke-width:1.0;" x1="182.5" x2="383.5" y1="671.9922" y2="671.9922"/>
        <text fill="#000000" font-family="sans-serif" font-size="13" lengthAdjust="spacing" textLength="173" x="194.5" y="667.1357">showError("Conversion failed")</text>
        <path d="M10,693.9922 L71,693.9922 L71,702.3438 L61,712.3438 L10,712.3438 L10,693.9922 " fill="#EEEEEE" style="stroke:#000000;stroke-width:1.5;"/>
        <rect fill="none" height="139.7578" style="stroke:#000000;stroke-width:1.5;" width="1008.5" x="10" y="693.9922"/>
        <text fill="#000000" font-family="sans-serif" font-size="13" font-weight="bold" lengthAdjust="spacing" textLength="16" x="25" y="708.4873">alt</text>
        <text fill="#000000" font-family="sans-serif" font-size="11" font-weight="bold" lengthAdjust="spacing" textLength="87" x="86" y="707.4111">[File Save Error]</text>
        <polygon fill="#181818" points="683.5,730.6953,673.5,734.6953,683.5,738.6953,679.5,734.6953" style="stroke:#181818;stroke-width:1.0;"/>
        <line style="stroke:#181818;stroke-width:1.0;" x1="677.5" x2="965.5" y1="734.6953" y2="734.6953"/>
        <text fill="#000000" font-family="sans-serif" font-size="13" lengthAdjust="spacing" textLength="73" x="689.5" y="729.8389">ExportFailed</text>
        <polygon fill="#181818" points="395.5,761.0469,385.5,765.0469,395.5,769.0469,391.5,765.0469" style="stroke:#181818;stroke-width:1.0;"/>
        <line style="stroke:#181818;stroke-width:1.0;" x1="389.5" x2="671.5" y1="765.0469" y2="765.0469"/>
        <text fill="#000000" font-family="sans-serif" font-size="13" lengthAdjust="spacing" textLength="73" x="401.5" y="760.1904">ExportFailed</text>
        <polygon fill="#181818" points="188.5,791.3984,178.5,795.3984,188.5,799.3984,184.5,795.3984" style="stroke:#181818;stroke-width:1.0;"/>
        <line style="stroke:#181818;stroke-width:1.0;" x1="182.5" x2="383.5" y1="795.3984" y2="795.3984"/>
        <text fill="#000000" font-family="sans-serif" font-size="13" lengthAdjust="spacing" textLength="162" x="194.5" y="790.542">showErrMsg("Export failed")</text>
        <polygon fill="#181818" points="52.5,821.75,42.5,825.75,52.5,829.75,48.5,825.75" style="stroke:#181818;stroke-width:1.0;"/>
        <line style="stroke:#181818;stroke-width:1.0;" x1="46.5" x2="176.5" y1="825.75" y2="825.75"/>
        <text fill="#000000" font-family="sans-serif" font-size="13" lengthAdjust="spacing" textLength="70" x="58.5" y="820.8936">ViewErrMsg</text>
        <!--SRC=[bLD1Ri8m4Bpx5IjEGMe_mA4IXI1LAb8b2dShMS0YiTDT4zhVruvBI482z1ZjpCwCPxDc97X-WQLKUgFmD07yBWpPcT5M9fR5UN06-G6PB4FgGkCIjHLjJ7iruTSHsSOLROvMggmji6Q_Ll9XOIYNTghJ3sdtOdrbiY1JgXJxTdHDCkgqfHXjg-LFKBZTOz7ZU9gcXColnXnMIALAS08xF0TzLsp5DSGJttAl4zHwc7DffUZ1T3IR56ug3KeGsYFfcZ8WiPb9IYUG65rYNLjuQL7Dxk_tH4o7SxW52vLXJMHPugS983-89F_eP2mQe47H-E-wyY939pgKgjjtbtRh87blJalUHIDiaqRZdhFqNmuiXCmiXBTWPJJ4H8O4mEqdl10MxWYTBu070_KmxsMgB4MZXibjHNMvtDyG4lWAOENwgGCyNif_8tHO3zYlMWcqYtU0_bO2FaGJlm00]-->
    </g>
</svg>
