<?xml version="1.0" encoding="UTF-8"?><svg xmlns="http://www.w3.org/2000/svg" xmlns:xlink="http://www.w3.org/1999/xlink" contentScriptType="application/ecmascript" contentStyleType="text/css" height="353px" preserveAspectRatio="none" style="width:2095px;height:353px;" version="1.1" viewBox="0 0 2095 353" width="2095px" zoomAndPan="magnify">
    <defs>
        <filter height="300%" id="fb5utvylmtjug" width="300%" x="-1" y="-1">
            <feGaussianBlur result="blurOut" stdDeviation="2.0"/>
            <feColorMatrix in="blurOut" result="blurOut2" type="matrix" values="0 0 0 0 0 0 0 0 0 0 0 0 0 0 0 0 0 0 .4 0"/>
            <feOffset dx="4.0" dy="4.0" in="blurOut2" result="blurOut3"/>
            <feBlend in="SourceGraphic" in2="blurOut3" mode="normal"/>
        </filter>
    </defs>
    <g>
        <!--MD5=[fee662a292a0353a69bd162820bae93b]
entity User-->
        <ellipse cx="1117.5" cy="14" fill="#FEFECE" filter="url(#fb5utvylmtjug)" rx="8" ry="8" style="stroke:#A80036;stroke-width:1.5;"/>
        <path d="M1117.5,22 L1117.5,49 M1104.5,30 L1130.5,30 M1117.5,49 L1104.5,64 M1117.5,49 L1130.5,64 " fill="none" filter="url(#fb5utvylmtjug)" style="stroke:#A80036;stroke-width:1.5;"/>
        <text fill="#000000" font-family="sans-serif" font-size="14" lengthAdjust="spacing" textLength="41" x="1097" y="84.0332">Utente</text>
        <ellipse cx="408.511" cy="177.7022" fill="#FEFECE" filter="url(#fb5utvylmtjug)" rx="96.511" ry="21.7022" style="stroke:#A80036;stroke-width:1.5;"/>
        <text fill="#000000" font-family="sans-serif" font-size="14" lengthAdjust="spacing" textLength="153" x="332.011" y="181.4307">Gestione CRUD Contatti</text>
        <ellipse cx="648.2628" cy="177.6526" fill="#FEFECE" filter="url(#fb5utvylmtjug)" rx="91.2628" ry="20.6526" style="stroke:#A80036;stroke-width:1.5;"/>
        <text fill="#000000" font-family="sans-serif" font-size="14" lengthAdjust="spacing" textLength="141" x="577.7628" y="181.3811">Ricerca di un Contatto</text>
        <ellipse cx="873.7239" cy="177.6448" fill="#FEFECE" filter="url(#fb5utvylmtjug)" rx="98.7239" ry="22.1448" style="stroke:#A80036;stroke-width:1.5;"/>
        <text fill="#000000" font-family="sans-serif" font-size="14" lengthAdjust="spacing" textLength="158" x="794.7239" y="181.3733">Ordinamento dei Contatti</text>
        <ellipse cx="1117.4781" cy="177.3956" fill="#FEFECE" filter="url(#fb5utvylmtjug)" rx="109.9781" ry="24.3956" style="stroke:#A80036;stroke-width:1.5;"/>
        <text fill="#000000" font-family="sans-serif" font-size="14" lengthAdjust="spacing" textLength="183" x="1025.9781" y="181.1241">Gestione Liste Preferiti/Label</text>
        <ellipse cx="1378.4339" cy="177.5868" fill="#FEFECE" filter="url(#fb5utvylmtjug)" rx="115.9339" ry="25.5868" style="stroke:#A80036;stroke-width:1.5;"/>
        <text fill="#000000" font-family="sans-serif" font-size="14" lengthAdjust="spacing" textLength="196" x="1280.4339" y="181.3153">Gestione di una o più Rubriche</text>
        <ellipse cx="1663.6118" cy="177.7224" fill="#FEFECE" filter="url(#fb5utvylmtjug)" rx="134.1118" ry="29.2224" style="stroke:#A80036;stroke-width:1.5;"/>
        <text fill="#000000" font-family="sans-serif" font-size="14" lengthAdjust="spacing" textLength="235" x="1546.1118" y="181.4509">Salvataggio Automatico della Rubrica</text>
        <ellipse cx="1953.5545" cy="177.5109" fill="#FEFECE" filter="url(#fb5utvylmtjug)" rx="120.5545" ry="26.5109" style="stroke:#A80036;stroke-width:1.5;"/>
        <text fill="#000000" font-family="sans-serif" font-size="14" lengthAdjust="spacing" textLength="206" x="1850.5545" y="181.2394">Import/Export Rubrica o Contatto</text>
        <ellipse cx="132.6055" cy="313.2211" fill="#FEFECE" filter="url(#fb5utvylmtjug)" rx="126.6055" ry="27.7211" style="stroke:#A80036;stroke-width:1.5;"/>
        <text fill="#000000" font-family="sans-serif" font-size="14" lengthAdjust="spacing" textLength="219" x="23.1055" y="316.9496">Errore: Campi obbligatori mancanti</text>
        <ellipse cx="665.7046" cy="312.9409" fill="#FEFECE" filter="url(#fb5utvylmtjug)" rx="107.7046" ry="23.9409" style="stroke:#A80036;stroke-width:1.5;"/>
        <text fill="#000000" font-family="sans-serif" font-size="14" lengthAdjust="spacing" textLength="178" x="576.7046" y="316.6694">Errore: Contatto non trovato</text>
        <ellipse cx="408.5541" cy="312.8108" fill="#FEFECE" filter="url(#fb5utvylmtjug)" rx="114.5541" ry="25.3108" style="stroke:#A80036;stroke-width:1.5;"/>
        <text fill="#000000" font-family="sans-serif" font-size="14" lengthAdjust="spacing" textLength="193" x="312.0541" y="316.5393">Eliminazione da Lista Specifica</text>
        <ellipse cx="1953.3511" cy="312.9702" fill="#FEFECE" filter="url(#fb5utvylmtjug)" rx="130.3511" ry="28.4702" style="stroke:#A80036;stroke-width:1.5;"/>
        <text fill="#000000" font-family="sans-serif" font-size="14" lengthAdjust="spacing" textLength="227" x="1839.8511" y="316.6987">Errore: File Import/Export non valido</text>
        <ellipse cx="1663.2982" cy="312.7596" fill="#FEFECE" filter="url(#fb5utvylmtjug)" rx="106.7982" ry="23.7596" style="stroke:#A80036;stroke-width:1.5;"/>
        <text fill="#000000" font-family="sans-serif" font-size="14" lengthAdjust="spacing" textLength="176" x="1575.2982" y="316.4882">Messaggi di Errore Generici</text>
        <!--MD5=[57bf3159251ba6d788e56222dd11fdd6]
link User to UC1-->
        <path d="M1096.97,50.32 C1022.15,62.5 757.01,106.17 539.5,148.5 C520.03,152.29 499,156.66 479.6,160.81 " fill="none" id="User-to-UC1" style="stroke:#A80036;stroke-width:1.0;"/>
        <polygon fill="#A80036" points="474.71,161.85,484.3512,163.862,479.5975,160.7955,482.664,156.0419,474.71,161.85" style="stroke:#A80036;stroke-width:1.0;"/>
        <!--MD5=[06ebee4cbbe132cc9038a23578b440b9]
link User to UC2-->
        <path d="M1096.74,52.73 C1029.38,71.33 815.13,130.49 709.11,159.76 " fill="none" id="User-to-UC2" style="stroke:#A80036;stroke-width:1.0;"/>
        <polygon fill="#A80036" points="704.15,161.14,713.8898,162.6017,708.9698,159.8099,711.7616,154.8899,704.15,161.14" style="stroke:#A80036;stroke-width:1.0;"/>
        <!--MD5=[7128cd1693f5ac5e48a097ae8b02564a]
link User to UC3-->
        <path d="M1096.7,58.04 C1056.54,79.36 967.65,126.53 914.97,154.49 " fill="none" id="User-to-UC3" style="stroke:#A80036;stroke-width:1.0;"/>
        <polygon fill="#A80036" points="910.3,156.97,920.1249,156.2839,914.7165,154.626,916.3745,149.2175,910.3,156.97" style="stroke:#A80036;stroke-width:1.0;"/>
        <!--MD5=[4ce996a24f59d1a51dc827afbab411c4]
link User to UC4-->
        <path d="M1117.5,87.62 C1117.5,107.11 1117.5,130.01 1117.5,147.69 " fill="none" id="User-to-UC4" style="stroke:#A80036;stroke-width:1.0;"/>
        <polygon fill="#A80036" points="1117.5,152.99,1121.5,143.99,1117.5,147.99,1113.5,143.99,1117.5,152.99" style="stroke:#A80036;stroke-width:1.0;"/>
        <!--MD5=[ded8ba90975cb89afbb8aa34a82599c8]
link User to UC5-->
        <path d="M1138.42,57.38 C1179.24,77.64 1270.57,122.95 1328.08,151.48 " fill="none" id="User-to-UC5" style="stroke:#A80036;stroke-width:1.0;"/>
        <polygon fill="#A80036" points="1332.85,153.85,1326.5793,146.2554,1328.375,151.6197,1323.0107,153.4154,1332.85,153.85" style="stroke:#A80036;stroke-width:1.0;"/>
        <!--MD5=[c3cbf0c63ed82a5d0a0584885332cee8]
link User to UC6-->
        <path d="M1138.24,51.92 C1208.29,68.53 1439.08,123.27 1570.24,154.38 " fill="none" id="User-to-UC6" style="stroke:#A80036;stroke-width:1.0;"/>
        <polygon fill="#A80036" points="1575.25,155.57,1567.4181,149.5983,1570.3854,154.4145,1565.5692,157.3818,1575.25,155.57" style="stroke:#A80036;stroke-width:1.0;"/>
        <!--MD5=[5a2cfe3801774c699a4d0ee8e3ef548b]
link User to UC7-->
        <path d="M1138.09,49.58 C1222.25,60.23 1548.23,102.33 1814.5,148.5 C1830.33,151.24 1847.11,154.41 1863.35,157.6 " fill="none" id="User-to-UC7" style="stroke:#A80036;stroke-width:1.0;"/>
        <polygon fill="#A80036" points="1868.37,158.59,1860.3197,152.9162,1863.4655,157.6177,1858.764,160.7634,1868.37,158.59" style="stroke:#A80036;stroke-width:1.0;"/>
        <!--MD5=[14889ae4243bc9be51597d403785d2cb]
link UC1 to Alt1-->
        <path d="M369.83,197.2 C322.45,220.12 241.84,259.11 187.89,285.21 " fill="none" id="UC1-to-Alt1" style="stroke:#A80036;stroke-width:1.0;stroke-dasharray:7.0,7.0;"/>
        <polygon fill="#A80036" points="183.08,287.54,192.924,287.2312,187.5831,285.3671,189.4473,280.0262,183.08,287.54" style="stroke:#A80036;stroke-width:1.0;"/>
        <text fill="#000000" font-family="sans-serif" font-size="13" lengthAdjust="spacing" textLength="53" x="288.5" y="250.9951">«extend»</text>
        <!--MD5=[61f9c7f0d1823c59f2f6fd59216f4265]
link UC2 to Alt2-->
        <path d="M651.01,198.2 C653.88,220.77 658.62,257.96 661.89,283.65 " fill="none" id="UC2-to-Alt2" style="stroke:#A80036;stroke-width:1.0;stroke-dasharray:7.0,7.0;"/>
        <polygon fill="#A80036" points="662.52,288.62,665.3561,279.1883,661.891,283.6597,657.4196,280.1947,662.52,288.62" style="stroke:#A80036;stroke-width:1.0;"/>
        <text fill="#000000" font-family="sans-serif" font-size="13" lengthAdjust="spacing" textLength="53" x="659.5" y="250.9951">«extend»</text>
        <!--MD5=[accbbce5d9cf0c19a50d339d1d5964cd]
link UC1 to Alt3-->
        <path d="M408.5,199.07 C408.5,221.19 408.5,256.59 408.5,281.86 " fill="none" id="UC1-to-Alt3" style="stroke:#A80036;stroke-width:1.0;stroke-dasharray:7.0,7.0;"/>
        <polygon fill="#A80036" points="408.5,287.09,412.5,278.09,408.5,282.09,404.5,278.09,408.5,287.09" style="stroke:#A80036;stroke-width:1.0;"/>
        <text fill="#000000" font-family="sans-serif" font-size="13" lengthAdjust="spacing" textLength="53" x="409.5" y="250.9951">«extend»</text>
        <!--MD5=[82f9f148ac3e04d1456d474c2b7e4fb2]
link UC7 to Alt4-->
        <path d="M1953.5,204.24 C1953.5,225.51 1953.5,255.86 1953.5,278.93 " fill="none" id="UC7-to-Alt4" style="stroke:#A80036;stroke-width:1.0;stroke-dasharray:7.0,7.0;"/>
        <polygon fill="#A80036" points="1953.5,284.03,1957.5,275.03,1953.5,279.03,1949.5,275.03,1953.5,284.03" style="stroke:#A80036;stroke-width:1.0;"/>
        <text fill="#000000" font-family="sans-serif" font-size="13" lengthAdjust="spacing" textLength="53" x="1954.5" y="250.9951">«extend»</text>
        <!--MD5=[cc03e604e2b989f42dd71b1b2e2a127b]
link UC6 to Alt5-->
        <path d="M1663.5,206.81 C1663.5,229.34 1663.5,260.74 1663.5,283.36 " fill="none" id="UC6-to-Alt5" style="stroke:#A80036;stroke-width:1.0;stroke-dasharray:7.0,7.0;"/>
        <polygon fill="#A80036" points="1663.5,288.62,1667.5,279.62,1663.5,283.62,1659.5,279.62,1663.5,288.62" style="stroke:#A80036;stroke-width:1.0;"/>
        <text fill="#000000" font-family="sans-serif" font-size="13" lengthAdjust="spacing" textLength="53" x="1664.5" y="250.9951">«extend»</text>
        <!--MD5=[3bb8824f9739e59127fe97d92d89454d]
@startuml
actor "Utente" as User

' Casi d'uso principali
usecase "Gestione CRUD Contatti" as UC1
usecase "Ricerca di un Contatto" as UC2
usecase "Ordinamento dei Contatti" as UC3
usecase "Gestione Liste Preferiti/Label" as UC4
usecase "Gestione di una o più Rubriche" as UC5
usecase "Salvataggio Automatico della Rubrica" as UC6
usecase "Import/Export Rubrica o Contatto" as UC7

' Casi alternativi ed estensioni
usecase "Errore: Campi obbligatori mancanti" as Alt1
usecase "Errore: Contatto non trovato" as Alt2
usecase "Eliminazione da Lista Specifica" as Alt3
usecase "Errore: File Import/Export non valido" as Alt4
usecase "Messaggi di Errore Generici" as Alt5

' Relazioni principali tra attore e casi d'uso
User - -> UC1
User - -> UC2
User - -> UC3
User - -> UC4
User - -> UC5
User - -> UC6
User - -> UC7

' Relazioni estese e alternative
UC1 ..> Alt1 : <<extend>>
UC2 ..> Alt2 : <<extend>>
UC1 ..> Alt3 : <<extend>>
UC7 ..> Alt4 : <<extend>>
UC6 ..> Alt5 : <<extend>>

@enduml

@startuml
actor "Utente" as User

usecase "Gestione CRUD Contatti" as UC1
usecase "Ricerca di un Contatto" as UC2
usecase "Ordinamento dei Contatti" as UC3
usecase "Gestione Liste Preferiti/Label" as UC4
usecase "Gestione di una o più Rubriche" as UC5
usecase "Salvataggio Automatico della Rubrica" as UC6
usecase "Import/Export Rubrica o Contatto" as UC7

usecase "Errore: Campi obbligatori mancanti" as Alt1
usecase "Errore: Contatto non trovato" as Alt2
usecase "Eliminazione da Lista Specifica" as Alt3
usecase "Errore: File Import/Export non valido" as Alt4
usecase "Messaggi di Errore Generici" as Alt5

User - -> UC1
User - -> UC2
User - -> UC3
User - -> UC4
User - -> UC5
User - -> UC6
User - -> UC7

UC1 ..> Alt1 : <<extend>>
UC2 ..> Alt2 : <<extend>>
UC1 ..> Alt3 : <<extend>>
UC7 ..> Alt4 : <<extend>>
UC6 ..> Alt5 : <<extend>>

@enduml

PlantUML version 1.2021.3(Mon Mar 22 17:53:19 CET 2021)
(GPL source distribution)
Java Runtime: Java(TM) SE Runtime Environment
JVM: Java HotSpot(TM) 64-Bit Server VM
Default Encoding: Cp1252
Language: it
Country: IT
-->
    </g>
</svg>
